<mxfile host="Electron" agent="Mozilla/5.0 (Windows NT 10.0; Win64; x64) AppleWebKit/537.36 (KHTML, like Gecko) draw.io/24.7.17 Chrome/128.0.6613.36 Electron/32.0.1 Safari/537.36" version="24.7.17">
  <diagram name="第 1 页" id="scfLHf3z_lzDtYm-yhFQ">
    <mxGraphModel dx="1505" dy="1533" grid="1" gridSize="10" guides="1" tooltips="1" connect="1" arrows="1" fold="1" page="1" pageScale="1" pageWidth="827" pageHeight="1169" math="0" shadow="0">
      <root>
        <mxCell id="0" />
        <mxCell id="1" parent="0" />
        <mxCell id="WoZrSJQnsLas9fDDs5VQ-1" value="" style="shape=partialRectangle;whiteSpace=wrap;html=1;bottom=0;right=0;fillColor=none;" vertex="1" parent="1">
          <mxGeometry x="100" y="190" width="70" height="60" as="geometry" />
        </mxCell>
        <mxCell id="WoZrSJQnsLas9fDDs5VQ-21" style="edgeStyle=orthogonalEdgeStyle;rounded=0;orthogonalLoop=1;jettySize=auto;html=1;exitX=0.25;exitY=1;exitDx=0;exitDy=0;entryX=0.75;entryY=1;entryDx=0;entryDy=0;" edge="1" parent="1" source="WoZrSJQnsLas9fDDs5VQ-2" target="WoZrSJQnsLas9fDDs5VQ-6">
          <mxGeometry relative="1" as="geometry">
            <Array as="points">
              <mxPoint x="138" y="370" />
              <mxPoint x="454" y="370" />
            </Array>
          </mxGeometry>
        </mxCell>
        <mxCell id="WoZrSJQnsLas9fDDs5VQ-2" value="" style="swimlane;startSize=0;" vertex="1" parent="1">
          <mxGeometry x="110" y="200" width="110" height="100" as="geometry" />
        </mxCell>
        <mxCell id="WoZrSJQnsLas9fDDs5VQ-7" value="&lt;font style=&quot;font-size: 18px;&quot;&gt;E1&lt;/font&gt;&lt;div&gt;&lt;font size=&quot;3&quot;&gt;病人&lt;/font&gt;&lt;/div&gt;" style="text;html=1;align=center;verticalAlign=middle;resizable=0;points=[];autosize=1;strokeColor=none;fillColor=none;" vertex="1" parent="WoZrSJQnsLas9fDDs5VQ-2">
          <mxGeometry x="25" y="25" width="60" height="50" as="geometry" />
        </mxCell>
        <mxCell id="WoZrSJQnsLas9fDDs5VQ-3" value="" style="shape=partialRectangle;whiteSpace=wrap;html=1;bottom=0;right=0;fillColor=none;" vertex="1" parent="1">
          <mxGeometry x="590" y="190" width="70" height="60" as="geometry" />
        </mxCell>
        <mxCell id="WoZrSJQnsLas9fDDs5VQ-4" value="" style="swimlane;startSize=0;" vertex="1" parent="1">
          <mxGeometry x="600" y="200" width="110" height="100" as="geometry" />
        </mxCell>
        <mxCell id="WoZrSJQnsLas9fDDs5VQ-11" value="&lt;font style=&quot;font-size: 18px;&quot;&gt;E2&lt;/font&gt;&lt;div&gt;&lt;font size=&quot;3&quot;&gt;门诊医生&lt;/font&gt;&lt;/div&gt;" style="text;html=1;align=center;verticalAlign=middle;resizable=0;points=[];autosize=1;strokeColor=none;fillColor=none;" vertex="1" parent="WoZrSJQnsLas9fDDs5VQ-4">
          <mxGeometry x="10" y="25" width="90" height="50" as="geometry" />
        </mxCell>
        <mxCell id="WoZrSJQnsLas9fDDs5VQ-5" value="P0" style="swimlane;childLayout=stackLayout;horizontal=1;startSize=50;horizontalStack=0;rounded=1;fontSize=14;fontStyle=0;strokeWidth=2;resizeParent=0;resizeLast=1;shadow=0;dashed=0;align=center;arcSize=4;whiteSpace=wrap;html=1;" vertex="1" parent="1">
          <mxGeometry x="334" y="190" width="160" height="120" as="geometry" />
        </mxCell>
        <mxCell id="WoZrSJQnsLas9fDDs5VQ-27" value="" style="endArrow=classic;html=1;rounded=0;entryX=0.967;entryY=0.392;entryDx=0;entryDy=0;entryPerimeter=0;" edge="1" parent="WoZrSJQnsLas9fDDs5VQ-5" target="WoZrSJQnsLas9fDDs5VQ-2">
          <mxGeometry width="50" height="50" relative="1" as="geometry">
            <mxPoint x="-4" y="50" as="sourcePoint" />
            <mxPoint x="46" as="targetPoint" />
          </mxGeometry>
        </mxCell>
        <mxCell id="WoZrSJQnsLas9fDDs5VQ-6" value="&lt;font style=&quot;font-size: 18px;&quot;&gt;门诊管理系统&lt;/font&gt;" style="align=left;strokeColor=none;fillColor=none;spacingLeft=4;fontSize=12;verticalAlign=top;resizable=0;rotatable=0;part=1;html=1;" vertex="1" parent="WoZrSJQnsLas9fDDs5VQ-5">
          <mxGeometry y="50" width="160" height="70" as="geometry" />
        </mxCell>
        <mxCell id="WoZrSJQnsLas9fDDs5VQ-13" value="" style="endArrow=none;html=1;rounded=0;" edge="1" parent="1">
          <mxGeometry width="50" height="50" relative="1" as="geometry">
            <mxPoint x="200" y="200" as="sourcePoint" />
            <mxPoint x="200" y="160" as="targetPoint" />
          </mxGeometry>
        </mxCell>
        <mxCell id="WoZrSJQnsLas9fDDs5VQ-14" value="" style="endArrow=none;html=1;rounded=0;" edge="1" parent="1">
          <mxGeometry width="50" height="50" relative="1" as="geometry">
            <mxPoint x="200" y="160" as="sourcePoint" />
            <mxPoint x="360" y="160" as="targetPoint" />
          </mxGeometry>
        </mxCell>
        <mxCell id="WoZrSJQnsLas9fDDs5VQ-16" value="" style="endArrow=classic;html=1;rounded=0;entryX=0.163;entryY=0;entryDx=0;entryDy=0;entryPerimeter=0;" edge="1" parent="1" target="WoZrSJQnsLas9fDDs5VQ-5">
          <mxGeometry width="50" height="50" relative="1" as="geometry">
            <mxPoint x="360" y="160" as="sourcePoint" />
            <mxPoint x="410" y="110" as="targetPoint" />
            <Array as="points">
              <mxPoint x="360" y="180" />
            </Array>
          </mxGeometry>
        </mxCell>
        <mxCell id="WoZrSJQnsLas9fDDs5VQ-19" style="edgeStyle=orthogonalEdgeStyle;rounded=0;orthogonalLoop=1;jettySize=auto;html=1;exitX=0.75;exitY=0;exitDx=0;exitDy=0;entryX=0.676;entryY=-0.008;entryDx=0;entryDy=0;entryPerimeter=0;" edge="1" parent="1" source="WoZrSJQnsLas9fDDs5VQ-5" target="WoZrSJQnsLas9fDDs5VQ-2">
          <mxGeometry relative="1" as="geometry">
            <Array as="points">
              <mxPoint x="454" y="130" />
              <mxPoint x="184" y="130" />
            </Array>
          </mxGeometry>
        </mxCell>
        <mxCell id="WoZrSJQnsLas9fDDs5VQ-20" style="edgeStyle=orthogonalEdgeStyle;rounded=0;orthogonalLoop=1;jettySize=auto;html=1;exitX=0.25;exitY=1;exitDx=0;exitDy=0;entryX=0.5;entryY=1;entryDx=0;entryDy=0;" edge="1" parent="1" source="WoZrSJQnsLas9fDDs5VQ-6" target="WoZrSJQnsLas9fDDs5VQ-2">
          <mxGeometry relative="1" as="geometry" />
        </mxCell>
        <mxCell id="WoZrSJQnsLas9fDDs5VQ-22" value="" style="endArrow=classic;html=1;rounded=0;" edge="1" parent="1">
          <mxGeometry width="50" height="50" relative="1" as="geometry">
            <mxPoint x="224" y="210" as="sourcePoint" />
            <mxPoint x="334" y="210" as="targetPoint" />
          </mxGeometry>
        </mxCell>
        <mxCell id="WoZrSJQnsLas9fDDs5VQ-24" value="" style="endArrow=classic;html=1;rounded=0;" edge="1" parent="1">
          <mxGeometry width="50" height="50" relative="1" as="geometry">
            <mxPoint x="220" y="270" as="sourcePoint" />
            <mxPoint x="330" y="270" as="targetPoint" />
          </mxGeometry>
        </mxCell>
        <mxCell id="WoZrSJQnsLas9fDDs5VQ-29" value="" style="endArrow=classic;html=1;rounded=0;entryX=0.967;entryY=0.392;entryDx=0;entryDy=0;entryPerimeter=0;exitX=0.002;exitY=0.835;exitDx=0;exitDy=0;exitPerimeter=0;" edge="1" parent="1" source="WoZrSJQnsLas9fDDs5VQ-6">
          <mxGeometry width="50" height="50" relative="1" as="geometry">
            <mxPoint x="334" y="300" as="sourcePoint" />
            <mxPoint x="220" y="299" as="targetPoint" />
            <Array as="points">
              <mxPoint x="300" y="299" />
            </Array>
          </mxGeometry>
        </mxCell>
        <mxCell id="WoZrSJQnsLas9fDDs5VQ-30" value="F8 药物" style="text;html=1;align=center;verticalAlign=middle;whiteSpace=wrap;rounded=0;" vertex="1" parent="1">
          <mxGeometry x="260" y="110" width="60" height="30" as="geometry" />
        </mxCell>
        <mxCell id="WoZrSJQnsLas9fDDs5VQ-31" value="F7取药请求" style="text;html=1;align=center;verticalAlign=middle;whiteSpace=wrap;rounded=0;" vertex="1" parent="1">
          <mxGeometry x="250" y="150" width="70" height="30" as="geometry" />
        </mxCell>
        <mxCell id="WoZrSJQnsLas9fDDs5VQ-32" value="F1挂号请求" style="text;html=1;align=center;verticalAlign=middle;whiteSpace=wrap;rounded=0;" vertex="1" parent="1">
          <mxGeometry x="250" y="190" width="70" height="30" as="geometry" />
        </mxCell>
        <mxCell id="WoZrSJQnsLas9fDDs5VQ-33" value="F2挂号单" style="text;html=1;align=center;verticalAlign=middle;whiteSpace=wrap;rounded=0;" vertex="1" parent="1">
          <mxGeometry x="250" y="220" width="60" height="30" as="geometry" />
        </mxCell>
        <mxCell id="WoZrSJQnsLas9fDDs5VQ-36" value="F3缴费请求" style="text;html=1;align=center;verticalAlign=middle;whiteSpace=wrap;rounded=0;" vertex="1" parent="1">
          <mxGeometry x="240" y="250" width="70" height="30" as="geometry" />
        </mxCell>
        <mxCell id="WoZrSJQnsLas9fDDs5VQ-37" value="F4缴费凭证" style="text;html=1;align=center;verticalAlign=middle;whiteSpace=wrap;rounded=0;" vertex="1" parent="1">
          <mxGeometry x="250" y="290" width="70" height="30" as="geometry" />
        </mxCell>
        <mxCell id="WoZrSJQnsLas9fDDs5VQ-38" value="F6处方、病例" style="text;html=1;align=center;verticalAlign=middle;whiteSpace=wrap;rounded=0;" vertex="1" parent="1">
          <mxGeometry x="250" y="320" width="80" height="30" as="geometry" />
        </mxCell>
        <mxCell id="WoZrSJQnsLas9fDDs5VQ-39" value="F5就诊请求" style="text;html=1;align=center;verticalAlign=middle;whiteSpace=wrap;rounded=0;" vertex="1" parent="1">
          <mxGeometry x="260" y="360" width="70" height="30" as="geometry" />
        </mxCell>
        <mxCell id="WoZrSJQnsLas9fDDs5VQ-41" value="" style="endArrow=classic;html=1;rounded=0;" edge="1" parent="1">
          <mxGeometry width="50" height="50" relative="1" as="geometry">
            <mxPoint x="490" y="240" as="sourcePoint" />
            <mxPoint x="597" y="240" as="targetPoint" />
          </mxGeometry>
        </mxCell>
        <mxCell id="WoZrSJQnsLas9fDDs5VQ-42" value="" style="endArrow=classic;html=1;rounded=0;" edge="1" parent="1">
          <mxGeometry width="50" height="50" relative="1" as="geometry">
            <mxPoint x="490" y="280" as="sourcePoint" />
            <mxPoint x="600" y="280" as="targetPoint" />
          </mxGeometry>
        </mxCell>
        <mxCell id="WoZrSJQnsLas9fDDs5VQ-43" value="F9诊察信息" style="text;html=1;align=center;verticalAlign=middle;whiteSpace=wrap;rounded=0;" vertex="1" parent="1">
          <mxGeometry x="510" y="210" width="70" height="30" as="geometry" />
        </mxCell>
        <mxCell id="WoZrSJQnsLas9fDDs5VQ-44" value="F10诊断结果" style="text;html=1;align=center;verticalAlign=middle;whiteSpace=wrap;rounded=0;" vertex="1" parent="1">
          <mxGeometry x="510" y="280" width="80" height="30" as="geometry" />
        </mxCell>
        <mxCell id="WoZrSJQnsLas9fDDs5VQ-45" value="&lt;h4 style=&quot;box-sizing: border-box; outline: 0px; margin: 24px 0px 8px; padding: 0px; font-family: &amp;quot;PingFang SC&amp;quot;, &amp;quot;Microsoft YaHei&amp;quot;, SimHei, Arial, SimSun; font-size: 18px; --el-button-hover-bg-color: #6d5ffd; --el-button-hover-border-color: #6d5ffd; --el-button-active-bg-color: #6d5ffd; --el-button-active-border-color: #6d5ffd; color: rgb(79, 79, 79); line-height: 26px; font-synthesis-style: auto; overflow-wrap: break-word; text-align: start; background-color: rgb(255, 255, 255);&quot;&gt;顶层数据流程图&lt;/h4&gt;" style="text;html=1;align=center;verticalAlign=middle;whiteSpace=wrap;rounded=0;" vertex="1" parent="1">
          <mxGeometry x="300" y="60" width="220" height="30" as="geometry" />
        </mxCell>
        <mxCell id="WoZrSJQnsLas9fDDs5VQ-46" value="王泽宇222210712228" style="text;html=1;align=center;verticalAlign=middle;whiteSpace=wrap;rounded=0;" vertex="1" parent="1">
          <mxGeometry x="560" y="90" width="160" height="30" as="geometry" />
        </mxCell>
        <mxCell id="WoZrSJQnsLas9fDDs5VQ-47" value="" style="shape=partialRectangle;whiteSpace=wrap;html=1;bottom=0;right=0;fillColor=none;" vertex="1" parent="1">
          <mxGeometry x="100" y="695" width="70" height="60" as="geometry" />
        </mxCell>
        <mxCell id="WoZrSJQnsLas9fDDs5VQ-48" value="" style="swimlane;startSize=0;" vertex="1" parent="1">
          <mxGeometry x="110" y="705" width="110" height="100" as="geometry" />
        </mxCell>
        <mxCell id="WoZrSJQnsLas9fDDs5VQ-49" value="&lt;font style=&quot;font-size: 18px;&quot;&gt;E1&lt;/font&gt;&lt;div&gt;&lt;font size=&quot;3&quot;&gt;病人&lt;/font&gt;&lt;/div&gt;" style="text;html=1;align=center;verticalAlign=middle;resizable=0;points=[];autosize=1;strokeColor=none;fillColor=none;" vertex="1" parent="WoZrSJQnsLas9fDDs5VQ-48">
          <mxGeometry x="25" y="25" width="60" height="50" as="geometry" />
        </mxCell>
        <mxCell id="WoZrSJQnsLas9fDDs5VQ-50" value="" style="shape=partialRectangle;whiteSpace=wrap;html=1;bottom=0;right=0;fillColor=none;" vertex="1" parent="1">
          <mxGeometry x="850" y="710" width="60" height="50" as="geometry" />
        </mxCell>
        <mxCell id="WoZrSJQnsLas9fDDs5VQ-100" style="edgeStyle=orthogonalEdgeStyle;rounded=0;orthogonalLoop=1;jettySize=auto;html=1;exitX=0;exitY=0.75;exitDx=0;exitDy=0;" edge="1" parent="1" source="WoZrSJQnsLas9fDDs5VQ-51">
          <mxGeometry relative="1" as="geometry">
            <mxPoint x="540" y="795" as="targetPoint" />
          </mxGeometry>
        </mxCell>
        <mxCell id="WoZrSJQnsLas9fDDs5VQ-51" value="" style="swimlane;startSize=0;" vertex="1" parent="1">
          <mxGeometry x="860" y="720" width="110" height="100" as="geometry" />
        </mxCell>
        <mxCell id="WoZrSJQnsLas9fDDs5VQ-52" value="&lt;font style=&quot;font-size: 18px;&quot;&gt;E2&lt;/font&gt;&lt;div&gt;&lt;font size=&quot;3&quot;&gt;门诊医生&lt;/font&gt;&lt;/div&gt;" style="text;html=1;align=center;verticalAlign=middle;resizable=0;points=[];autosize=1;strokeColor=none;fillColor=none;" vertex="1" parent="WoZrSJQnsLas9fDDs5VQ-51">
          <mxGeometry x="10" y="15" width="90" height="50" as="geometry" />
        </mxCell>
        <mxCell id="WoZrSJQnsLas9fDDs5VQ-88" style="edgeStyle=orthogonalEdgeStyle;rounded=0;orthogonalLoop=1;jettySize=auto;html=1;exitX=1;exitY=0.5;exitDx=0;exitDy=0;entryX=0;entryY=0.5;entryDx=0;entryDy=0;" edge="1" parent="1" source="WoZrSJQnsLas9fDDs5VQ-53" target="WoZrSJQnsLas9fDDs5VQ-87">
          <mxGeometry relative="1" as="geometry" />
        </mxCell>
        <mxCell id="WoZrSJQnsLas9fDDs5VQ-53" value="P1" style="swimlane;childLayout=stackLayout;horizontal=1;startSize=50;horizontalStack=0;rounded=1;fontSize=14;fontStyle=0;strokeWidth=2;resizeParent=0;resizeLast=1;shadow=0;dashed=0;align=center;arcSize=4;whiteSpace=wrap;html=1;" vertex="1" parent="1">
          <mxGeometry x="413" y="550" width="117" height="95" as="geometry" />
        </mxCell>
        <mxCell id="WoZrSJQnsLas9fDDs5VQ-55" value="&lt;span style=&quot;font-size: 18px;&quot;&gt;&amp;nbsp; &amp;nbsp;挂号收费&lt;/span&gt;" style="align=left;strokeColor=none;fillColor=none;spacingLeft=4;fontSize=12;verticalAlign=top;resizable=0;rotatable=0;part=1;html=1;" vertex="1" parent="WoZrSJQnsLas9fDDs5VQ-53">
          <mxGeometry y="50" width="117" height="45" as="geometry" />
        </mxCell>
        <mxCell id="WoZrSJQnsLas9fDDs5VQ-56" style="edgeStyle=orthogonalEdgeStyle;rounded=0;orthogonalLoop=1;jettySize=auto;html=1;exitX=0.5;exitY=1;exitDx=0;exitDy=0;" edge="1" parent="WoZrSJQnsLas9fDDs5VQ-53" source="WoZrSJQnsLas9fDDs5VQ-55" target="WoZrSJQnsLas9fDDs5VQ-55">
          <mxGeometry relative="1" as="geometry" />
        </mxCell>
        <mxCell id="WoZrSJQnsLas9fDDs5VQ-57" value="P2" style="swimlane;childLayout=stackLayout;horizontal=1;startSize=50;horizontalStack=0;rounded=1;fontSize=14;fontStyle=0;strokeWidth=2;resizeParent=0;resizeLast=1;shadow=0;dashed=0;align=center;arcSize=4;whiteSpace=wrap;html=1;" vertex="1" parent="1">
          <mxGeometry x="413" y="710" width="117" height="95" as="geometry" />
        </mxCell>
        <mxCell id="WoZrSJQnsLas9fDDs5VQ-58" value="&lt;span style=&quot;font-size: 18px;&quot;&gt;&amp;nbsp; &amp;nbsp; &amp;nbsp; &amp;nbsp;就诊&lt;/span&gt;" style="align=left;strokeColor=none;fillColor=none;spacingLeft=4;fontSize=12;verticalAlign=top;resizable=0;rotatable=0;part=1;html=1;" vertex="1" parent="WoZrSJQnsLas9fDDs5VQ-57">
          <mxGeometry y="50" width="117" height="45" as="geometry" />
        </mxCell>
        <mxCell id="WoZrSJQnsLas9fDDs5VQ-59" style="edgeStyle=orthogonalEdgeStyle;rounded=0;orthogonalLoop=1;jettySize=auto;html=1;exitX=0.5;exitY=1;exitDx=0;exitDy=0;" edge="1" parent="WoZrSJQnsLas9fDDs5VQ-57" source="WoZrSJQnsLas9fDDs5VQ-58" target="WoZrSJQnsLas9fDDs5VQ-58">
          <mxGeometry relative="1" as="geometry" />
        </mxCell>
        <mxCell id="WoZrSJQnsLas9fDDs5VQ-60" value="P3" style="swimlane;childLayout=stackLayout;horizontal=1;startSize=50;horizontalStack=0;rounded=1;fontSize=14;fontStyle=0;strokeWidth=2;resizeParent=0;resizeLast=1;shadow=0;dashed=0;align=center;arcSize=4;whiteSpace=wrap;html=1;" vertex="1" parent="1">
          <mxGeometry x="413" y="850" width="117" height="95" as="geometry" />
        </mxCell>
        <mxCell id="WoZrSJQnsLas9fDDs5VQ-61" value="&lt;span style=&quot;font-size: 18px;&quot;&gt;&amp;nbsp; &amp;nbsp; &amp;nbsp; &amp;nbsp;取药&lt;/span&gt;" style="align=left;strokeColor=none;fillColor=none;spacingLeft=4;fontSize=12;verticalAlign=top;resizable=0;rotatable=0;part=1;html=1;" vertex="1" parent="WoZrSJQnsLas9fDDs5VQ-60">
          <mxGeometry y="50" width="117" height="45" as="geometry" />
        </mxCell>
        <mxCell id="WoZrSJQnsLas9fDDs5VQ-62" style="edgeStyle=orthogonalEdgeStyle;rounded=0;orthogonalLoop=1;jettySize=auto;html=1;exitX=0.5;exitY=1;exitDx=0;exitDy=0;" edge="1" parent="WoZrSJQnsLas9fDDs5VQ-60" source="WoZrSJQnsLas9fDDs5VQ-61" target="WoZrSJQnsLas9fDDs5VQ-61">
          <mxGeometry relative="1" as="geometry" />
        </mxCell>
        <mxCell id="WoZrSJQnsLas9fDDs5VQ-65" value="" style="endArrow=classic;html=1;rounded=0;entryX=0.681;entryY=-0.018;entryDx=0;entryDy=0;entryPerimeter=0;" edge="1" parent="1" target="WoZrSJQnsLas9fDDs5VQ-48">
          <mxGeometry width="50" height="50" relative="1" as="geometry">
            <mxPoint x="410" y="579" as="sourcePoint" />
            <mxPoint x="186" y="579" as="targetPoint" />
            <Array as="points">
              <mxPoint x="186" y="580" />
            </Array>
          </mxGeometry>
        </mxCell>
        <mxCell id="WoZrSJQnsLas9fDDs5VQ-66" value="" style="endArrow=classic;html=1;rounded=0;" edge="1" parent="1">
          <mxGeometry width="50" height="50" relative="1" as="geometry">
            <mxPoint x="170" y="560" as="sourcePoint" />
            <mxPoint x="410" y="560" as="targetPoint" />
          </mxGeometry>
        </mxCell>
        <mxCell id="WoZrSJQnsLas9fDDs5VQ-67" value="" style="endArrow=classic;html=1;rounded=0;exitX=0.822;exitY=0.005;exitDx=0;exitDy=0;exitPerimeter=0;" edge="1" parent="1" source="WoZrSJQnsLas9fDDs5VQ-48">
          <mxGeometry width="50" height="50" relative="1" as="geometry">
            <mxPoint x="201.58000000000004" y="670" as="sourcePoint" />
            <mxPoint x="411" y="611.4" as="targetPoint" />
            <Array as="points">
              <mxPoint x="201" y="611.4" />
            </Array>
          </mxGeometry>
        </mxCell>
        <mxCell id="WoZrSJQnsLas9fDDs5VQ-68" value="" style="endArrow=classic;html=1;rounded=0;entryX=1;entryY=0;entryDx=0;entryDy=0;" edge="1" parent="1" target="WoZrSJQnsLas9fDDs5VQ-48">
          <mxGeometry width="50" height="50" relative="1" as="geometry">
            <mxPoint x="410" y="639" as="sourcePoint" />
            <mxPoint x="219.99999999999994" y="680" as="targetPoint" />
            <Array as="points">
              <mxPoint x="313.31" y="638.7" />
              <mxPoint x="220" y="640" />
            </Array>
          </mxGeometry>
        </mxCell>
        <mxCell id="WoZrSJQnsLas9fDDs5VQ-69" value="F1挂号请求" style="text;html=1;align=center;verticalAlign=middle;whiteSpace=wrap;rounded=0;" vertex="1" parent="1">
          <mxGeometry x="201" y="540" width="70" height="30" as="geometry" />
        </mxCell>
        <mxCell id="WoZrSJQnsLas9fDDs5VQ-70" value="F2挂号单" style="text;html=1;align=center;verticalAlign=middle;whiteSpace=wrap;rounded=0;" vertex="1" parent="1">
          <mxGeometry x="220" y="560" width="60" height="30" as="geometry" />
        </mxCell>
        <mxCell id="WoZrSJQnsLas9fDDs5VQ-71" value="F3缴费请求" style="text;html=1;align=center;verticalAlign=middle;whiteSpace=wrap;rounded=0;" vertex="1" parent="1">
          <mxGeometry x="230" y="590" width="70" height="30" as="geometry" />
        </mxCell>
        <mxCell id="WoZrSJQnsLas9fDDs5VQ-72" value="F4缴费凭证" style="text;html=1;align=center;verticalAlign=middle;whiteSpace=wrap;rounded=0;" vertex="1" parent="1">
          <mxGeometry x="240" y="615" width="70" height="30" as="geometry" />
        </mxCell>
        <mxCell id="WoZrSJQnsLas9fDDs5VQ-74" value="" style="endArrow=none;html=1;rounded=0;" edge="1" parent="1">
          <mxGeometry width="50" height="50" relative="1" as="geometry">
            <mxPoint x="170" y="694" as="sourcePoint" />
            <mxPoint x="170" y="560" as="targetPoint" />
          </mxGeometry>
        </mxCell>
        <mxCell id="WoZrSJQnsLas9fDDs5VQ-76" style="edgeStyle=orthogonalEdgeStyle;rounded=0;orthogonalLoop=1;jettySize=auto;html=1;exitX=1;exitY=0.25;exitDx=0;exitDy=0;entryX=0.015;entryY=0.201;entryDx=0;entryDy=0;entryPerimeter=0;" edge="1" parent="1" source="WoZrSJQnsLas9fDDs5VQ-48" target="WoZrSJQnsLas9fDDs5VQ-57">
          <mxGeometry relative="1" as="geometry" />
        </mxCell>
        <mxCell id="WoZrSJQnsLas9fDDs5VQ-77" style="edgeStyle=orthogonalEdgeStyle;rounded=0;orthogonalLoop=1;jettySize=auto;html=1;exitX=0;exitY=0.25;exitDx=0;exitDy=0;entryX=1;entryY=0.665;entryDx=0;entryDy=0;entryPerimeter=0;" edge="1" parent="1" source="WoZrSJQnsLas9fDDs5VQ-58" target="WoZrSJQnsLas9fDDs5VQ-48">
          <mxGeometry relative="1" as="geometry" />
        </mxCell>
        <mxCell id="WoZrSJQnsLas9fDDs5VQ-78" value="F5就诊请求" style="text;html=1;align=center;verticalAlign=middle;whiteSpace=wrap;rounded=0;" vertex="1" parent="1">
          <mxGeometry x="271" y="705" width="70" height="30" as="geometry" />
        </mxCell>
        <mxCell id="WoZrSJQnsLas9fDDs5VQ-79" value="F6处方" style="text;html=1;align=center;verticalAlign=middle;whiteSpace=wrap;rounded=0;" vertex="1" parent="1">
          <mxGeometry x="271" y="770" width="70" height="30" as="geometry" />
        </mxCell>
        <mxCell id="WoZrSJQnsLas9fDDs5VQ-80" style="edgeStyle=orthogonalEdgeStyle;rounded=0;orthogonalLoop=1;jettySize=auto;html=1;exitX=0.75;exitY=1;exitDx=0;exitDy=0;entryX=-0.001;entryY=0.377;entryDx=0;entryDy=0;entryPerimeter=0;" edge="1" parent="1" source="WoZrSJQnsLas9fDDs5VQ-48" target="WoZrSJQnsLas9fDDs5VQ-60">
          <mxGeometry relative="1" as="geometry" />
        </mxCell>
        <mxCell id="WoZrSJQnsLas9fDDs5VQ-81" style="edgeStyle=orthogonalEdgeStyle;rounded=0;orthogonalLoop=1;jettySize=auto;html=1;exitX=0;exitY=0.75;exitDx=0;exitDy=0;entryX=0.179;entryY=0.98;entryDx=0;entryDy=0;entryPerimeter=0;" edge="1" parent="1" source="WoZrSJQnsLas9fDDs5VQ-60" target="WoZrSJQnsLas9fDDs5VQ-48">
          <mxGeometry relative="1" as="geometry" />
        </mxCell>
        <mxCell id="WoZrSJQnsLas9fDDs5VQ-82" value="F7取药请求" style="text;html=1;align=center;verticalAlign=middle;whiteSpace=wrap;rounded=0;" vertex="1" parent="1">
          <mxGeometry x="201" y="860" width="70" height="30" as="geometry" />
        </mxCell>
        <mxCell id="WoZrSJQnsLas9fDDs5VQ-83" value="F8药物" style="text;html=1;align=center;verticalAlign=middle;whiteSpace=wrap;rounded=0;" vertex="1" parent="1">
          <mxGeometry x="150" y="920" width="70" height="30" as="geometry" />
        </mxCell>
        <mxCell id="WoZrSJQnsLas9fDDs5VQ-84" value="S2" style="html=1;dashed=0;whiteSpace=wrap;shape=mxgraph.dfd.dataStoreID;align=left;spacingLeft=3;points=[[0,0],[0.5,0],[1,0],[0,0.5],[1,0.5],[0,1],[0.5,1],[1,1]];" vertex="1" parent="1">
          <mxGeometry x="670" y="680" width="100" height="30" as="geometry" />
        </mxCell>
        <mxCell id="WoZrSJQnsLas9fDDs5VQ-85" value="S4" style="html=1;dashed=0;whiteSpace=wrap;shape=mxgraph.dfd.dataStoreID;align=left;spacingLeft=3;points=[[0,0],[0.5,0],[1,0],[0,0.5],[1,0.5],[0,1],[0.5,1],[1,1]];" vertex="1" parent="1">
          <mxGeometry x="670" y="882.5" width="100" height="30" as="geometry" />
        </mxCell>
        <mxCell id="WoZrSJQnsLas9fDDs5VQ-86" value="S3" style="html=1;dashed=0;whiteSpace=wrap;shape=mxgraph.dfd.dataStoreID;align=left;spacingLeft=3;points=[[0,0],[0.5,0],[1,0],[0,0.5],[1,0.5],[0,1],[0.5,1],[1,1]];" vertex="1" parent="1">
          <mxGeometry x="670" y="725" width="100" height="30" as="geometry" />
        </mxCell>
        <mxCell id="WoZrSJQnsLas9fDDs5VQ-87" value="S1" style="html=1;dashed=0;whiteSpace=wrap;shape=mxgraph.dfd.dataStoreID;align=left;spacingLeft=3;points=[[0,0],[0.5,0],[1,0],[0,0.5],[1,0.5],[0,1],[0.5,1],[1,1]];" vertex="1" parent="1">
          <mxGeometry x="670" y="582.5" width="100" height="30" as="geometry" />
        </mxCell>
        <mxCell id="WoZrSJQnsLas9fDDs5VQ-89" style="edgeStyle=orthogonalEdgeStyle;rounded=0;orthogonalLoop=1;jettySize=auto;html=1;exitX=0.5;exitY=1;exitDx=0;exitDy=0;entryX=-0.01;entryY=0.306;entryDx=0;entryDy=0;entryPerimeter=0;" edge="1" parent="1" source="WoZrSJQnsLas9fDDs5VQ-55" target="WoZrSJQnsLas9fDDs5VQ-84">
          <mxGeometry relative="1" as="geometry" />
        </mxCell>
        <mxCell id="WoZrSJQnsLas9fDDs5VQ-90" style="edgeStyle=orthogonalEdgeStyle;rounded=0;orthogonalLoop=1;jettySize=auto;html=1;exitX=1;exitY=0;exitDx=0;exitDy=0;entryX=0;entryY=0.5;entryDx=0;entryDy=0;" edge="1" parent="1" source="WoZrSJQnsLas9fDDs5VQ-61" target="WoZrSJQnsLas9fDDs5VQ-85">
          <mxGeometry relative="1" as="geometry">
            <Array as="points">
              <mxPoint x="530" y="898" />
              <mxPoint x="600" y="898" />
            </Array>
          </mxGeometry>
        </mxCell>
        <mxCell id="WoZrSJQnsLas9fDDs5VQ-91" style="edgeStyle=orthogonalEdgeStyle;rounded=0;orthogonalLoop=1;jettySize=auto;html=1;exitX=1;exitY=0.25;exitDx=0;exitDy=0;" edge="1" parent="1" source="WoZrSJQnsLas9fDDs5VQ-57">
          <mxGeometry relative="1" as="geometry">
            <mxPoint x="670" y="734" as="targetPoint" />
          </mxGeometry>
        </mxCell>
        <mxCell id="WoZrSJQnsLas9fDDs5VQ-93" style="edgeStyle=orthogonalEdgeStyle;rounded=0;orthogonalLoop=1;jettySize=auto;html=1;exitX=0;exitY=1;exitDx=0;exitDy=0;entryX=0.978;entryY=0.048;entryDx=0;entryDy=0;entryPerimeter=0;" edge="1" parent="1">
          <mxGeometry relative="1" as="geometry">
            <mxPoint x="670" y="704.9999999999999" as="sourcePoint" />
            <mxPoint x="527.4259999999999" y="709.5600000000001" as="targetPoint" />
            <Array as="points">
              <mxPoint x="670" y="710" />
              <mxPoint x="600" y="710" />
            </Array>
          </mxGeometry>
        </mxCell>
        <mxCell id="WoZrSJQnsLas9fDDs5VQ-98" style="edgeStyle=orthogonalEdgeStyle;rounded=0;orthogonalLoop=1;jettySize=auto;html=1;exitX=1;exitY=0.25;exitDx=0;exitDy=0;" edge="1" parent="1" source="WoZrSJQnsLas9fDDs5VQ-58">
          <mxGeometry relative="1" as="geometry">
            <mxPoint x="860" y="771" as="targetPoint" />
          </mxGeometry>
        </mxCell>
        <mxCell id="WoZrSJQnsLas9fDDs5VQ-101" value="F11缴费信息" style="text;html=1;align=center;verticalAlign=middle;whiteSpace=wrap;rounded=0;" vertex="1" parent="1">
          <mxGeometry x="570" y="570" width="70" height="30" as="geometry" />
        </mxCell>
        <mxCell id="WoZrSJQnsLas9fDDs5VQ-102" value="F12挂号信息" style="text;html=1;align=center;verticalAlign=middle;whiteSpace=wrap;rounded=0;" vertex="1" parent="1">
          <mxGeometry x="530" y="665" width="80" height="30" as="geometry" />
        </mxCell>
        <mxCell id="WoZrSJQnsLas9fDDs5VQ-103" value="F13挂号记录信息" style="text;html=1;align=center;verticalAlign=middle;whiteSpace=wrap;rounded=0;" vertex="1" parent="1">
          <mxGeometry x="555" y="690" width="100" height="30" as="geometry" />
        </mxCell>
        <mxCell id="WoZrSJQnsLas9fDDs5VQ-104" value="F14患者就诊信息" style="text;html=1;align=center;verticalAlign=middle;whiteSpace=wrap;rounded=0;" vertex="1" parent="1">
          <mxGeometry x="555" y="725" width="100" height="30" as="geometry" />
        </mxCell>
        <mxCell id="WoZrSJQnsLas9fDDs5VQ-105" value="F9侦查信息" style="text;html=1;align=center;verticalAlign=middle;whiteSpace=wrap;rounded=0;" vertex="1" parent="1">
          <mxGeometry x="680" y="755" width="70" height="30" as="geometry" />
        </mxCell>
        <mxCell id="WoZrSJQnsLas9fDDs5VQ-106" value="F10诊断结果、病历信息" style="text;html=1;align=center;verticalAlign=middle;whiteSpace=wrap;rounded=0;" vertex="1" parent="1">
          <mxGeometry x="645" y="790" width="140" height="30" as="geometry" />
        </mxCell>
        <mxCell id="WoZrSJQnsLas9fDDs5VQ-107" value="Text" style="text;html=1;align=center;verticalAlign=middle;whiteSpace=wrap;rounded=0;" vertex="1" parent="1">
          <mxGeometry x="560" y="882.5" width="60" height="30" as="geometry" />
        </mxCell>
        <mxCell id="WoZrSJQnsLas9fDDs5VQ-108" value="收费记录" style="text;html=1;align=center;verticalAlign=middle;whiteSpace=wrap;rounded=0;" vertex="1" parent="1">
          <mxGeometry x="700" y="582.5" width="60" height="30" as="geometry" />
        </mxCell>
        <mxCell id="WoZrSJQnsLas9fDDs5VQ-109" value="挂号记录" style="text;html=1;align=center;verticalAlign=middle;whiteSpace=wrap;rounded=0;" vertex="1" parent="1">
          <mxGeometry x="700" y="680" width="60" height="30" as="geometry" />
        </mxCell>
        <mxCell id="WoZrSJQnsLas9fDDs5VQ-110" value="就诊记录" style="text;html=1;align=center;verticalAlign=middle;whiteSpace=wrap;rounded=0;" vertex="1" parent="1">
          <mxGeometry x="700" y="725" width="60" height="30" as="geometry" />
        </mxCell>
        <mxCell id="WoZrSJQnsLas9fDDs5VQ-111" value="药物记录" style="text;html=1;align=center;verticalAlign=middle;whiteSpace=wrap;rounded=0;" vertex="1" parent="1">
          <mxGeometry x="700" y="882.5" width="60" height="30" as="geometry" />
        </mxCell>
        <mxCell id="WoZrSJQnsLas9fDDs5VQ-112" value="&lt;h4 style=&quot;box-sizing: border-box; outline: 0px; margin: 24px 0px 8px; padding: 0px; font-family: &amp;quot;PingFang SC&amp;quot;, &amp;quot;Microsoft YaHei&amp;quot;, SimHei, Arial, SimSun; font-size: 18px; --el-button-hover-bg-color: #6d5ffd; --el-button-hover-border-color: #6d5ffd; --el-button-active-bg-color: #6d5ffd; --el-button-active-border-color: #6d5ffd; color: rgb(79, 79, 79); line-height: 26px; font-synthesis-style: auto; overflow-wrap: break-word; text-align: start; background-color: rgb(255, 255, 255);&quot;&gt;第一层数据流程图：&lt;/h4&gt;" style="text;html=1;align=center;verticalAlign=middle;whiteSpace=wrap;rounded=0;" vertex="1" parent="1">
          <mxGeometry x="354" y="490" width="166" height="30" as="geometry" />
        </mxCell>
        <mxCell id="WoZrSJQnsLas9fDDs5VQ-113" value="王泽宇222210712228" style="text;html=1;align=center;verticalAlign=middle;whiteSpace=wrap;rounded=0;" vertex="1" parent="1">
          <mxGeometry x="156" y="500" width="160" height="30" as="geometry" />
        </mxCell>
        <mxCell id="WoZrSJQnsLas9fDDs5VQ-126" value="" style="endArrow=none;dashed=1;html=1;rounded=0;" edge="1" parent="1">
          <mxGeometry width="50" height="50" relative="1" as="geometry">
            <mxPoint x="330" y="430" as="sourcePoint" />
            <mxPoint x="800" y="430" as="targetPoint" />
            <Array as="points">
              <mxPoint x="550" y="430" />
            </Array>
          </mxGeometry>
        </mxCell>
        <mxCell id="WoZrSJQnsLas9fDDs5VQ-127" value="" style="endArrow=none;dashed=1;html=1;rounded=0;" edge="1" parent="1">
          <mxGeometry width="50" height="50" relative="1" as="geometry">
            <mxPoint x="800" y="430" as="sourcePoint" />
            <mxPoint x="800" y="1000" as="targetPoint" />
          </mxGeometry>
        </mxCell>
        <mxCell id="WoZrSJQnsLas9fDDs5VQ-128" value="" style="endArrow=none;dashed=1;html=1;rounded=0;" edge="1" parent="1">
          <mxGeometry width="50" height="50" relative="1" as="geometry">
            <mxPoint x="330" y="1000" as="sourcePoint" />
            <mxPoint x="330" y="430" as="targetPoint" />
          </mxGeometry>
        </mxCell>
        <mxCell id="WoZrSJQnsLas9fDDs5VQ-129" value="" style="endArrow=none;dashed=1;html=1;rounded=0;" edge="1" parent="1">
          <mxGeometry width="50" height="50" relative="1" as="geometry">
            <mxPoint x="330" y="1000" as="sourcePoint" />
            <mxPoint x="800" y="1000" as="targetPoint" />
          </mxGeometry>
        </mxCell>
        <mxCell id="WoZrSJQnsLas9fDDs5VQ-130" value="" style="endArrow=none;html=1;rounded=0;" edge="1" parent="1">
          <mxGeometry width="50" height="50" relative="1" as="geometry">
            <mxPoint x="330" y="480" as="sourcePoint" />
            <mxPoint x="800" y="480" as="targetPoint" />
          </mxGeometry>
        </mxCell>
        <mxCell id="WoZrSJQnsLas9fDDs5VQ-131" value="门诊管理系统" style="text;html=1;align=center;verticalAlign=middle;resizable=0;points=[];autosize=1;strokeColor=none;fillColor=none;" vertex="1" parent="1">
          <mxGeometry x="510" y="438" width="100" height="30" as="geometry" />
        </mxCell>
        <mxCell id="WoZrSJQnsLas9fDDs5VQ-132" value="&lt;span style=&quot;font-size: 18px;&quot;&gt;科室&lt;/span&gt;" style="rounded=0;whiteSpace=wrap;html=1;" vertex="1" parent="1">
          <mxGeometry x="80" y="1370" width="120" height="60" as="geometry" />
        </mxCell>
        <mxCell id="WoZrSJQnsLas9fDDs5VQ-133" value="&lt;span style=&quot;font-size: 18px;&quot;&gt;属于&lt;/span&gt;" style="rhombus;whiteSpace=wrap;html=1;" vertex="1" parent="1">
          <mxGeometry x="81" y="1510" width="120" height="80" as="geometry" />
        </mxCell>
        <mxCell id="WoZrSJQnsLas9fDDs5VQ-134" value="&lt;span style=&quot;font-size: 18px;&quot;&gt;药品&lt;/span&gt;" style="rounded=0;whiteSpace=wrap;html=1;" vertex="1" parent="1">
          <mxGeometry x="316" y="1280" width="120" height="60" as="geometry" />
        </mxCell>
        <mxCell id="WoZrSJQnsLas9fDDs5VQ-135" value="&lt;span style=&quot;font-size: 18px;&quot;&gt;医生&lt;/span&gt;" style="rounded=0;whiteSpace=wrap;html=1;" vertex="1" parent="1">
          <mxGeometry x="81" y="1680" width="120" height="60" as="geometry" />
        </mxCell>
        <mxCell id="WoZrSJQnsLas9fDDs5VQ-139" value="&lt;span style=&quot;font-size: 18px;&quot;&gt;接收&lt;/span&gt;" style="rhombus;whiteSpace=wrap;html=1;" vertex="1" parent="1">
          <mxGeometry x="81" y="2080" width="120" height="80" as="geometry" />
        </mxCell>
        <mxCell id="WoZrSJQnsLas9fDDs5VQ-140" value="&lt;span style=&quot;font-size: 18px;&quot;&gt;给出&lt;/span&gt;" style="rhombus;whiteSpace=wrap;html=1;" vertex="1" parent="1">
          <mxGeometry x="325.5" y="1970" width="120" height="80" as="geometry" />
        </mxCell>
        <mxCell id="WoZrSJQnsLas9fDDs5VQ-141" value="&lt;span style=&quot;font-size: 18px;&quot;&gt;填写&lt;/span&gt;" style="rhombus;whiteSpace=wrap;html=1;" vertex="1" parent="1">
          <mxGeometry x="325.5" y="1830" width="120" height="80" as="geometry" />
        </mxCell>
        <mxCell id="WoZrSJQnsLas9fDDs5VQ-142" value="&lt;span style=&quot;font-size: 18px;&quot;&gt;填写&lt;/span&gt;" style="rhombus;whiteSpace=wrap;html=1;" vertex="1" parent="1">
          <mxGeometry x="320" y="1673.5" width="120" height="80" as="geometry" />
        </mxCell>
        <mxCell id="WoZrSJQnsLas9fDDs5VQ-143" value="&lt;span style=&quot;font-size: 18px;&quot;&gt;参考&lt;/span&gt;" style="rhombus;whiteSpace=wrap;html=1;" vertex="1" parent="1">
          <mxGeometry x="316" y="1400" width="120" height="80" as="geometry" />
        </mxCell>
        <mxCell id="WoZrSJQnsLas9fDDs5VQ-144" value="&lt;span style=&quot;font-size: 18px;&quot;&gt;处方药品明细&lt;/span&gt;" style="rounded=0;whiteSpace=wrap;html=1;" vertex="1" parent="1">
          <mxGeometry x="316" y="1540" width="120" height="60" as="geometry" />
        </mxCell>
        <mxCell id="WoZrSJQnsLas9fDDs5VQ-145" value="&lt;span style=&quot;font-size: 18px;&quot;&gt;包含&lt;/span&gt;" style="rhombus;whiteSpace=wrap;html=1;" vertex="1" parent="1">
          <mxGeometry x="550.5" y="1530" width="120" height="80" as="geometry" />
        </mxCell>
        <mxCell id="WoZrSJQnsLas9fDDs5VQ-152" value="&lt;span style=&quot;font-size: 18px;&quot;&gt;处方单&lt;/span&gt;" style="rounded=0;whiteSpace=wrap;html=1;" vertex="1" parent="1">
          <mxGeometry x="550.5" y="1680" width="120" height="60" as="geometry" />
        </mxCell>
        <mxCell id="WoZrSJQnsLas9fDDs5VQ-156" value="&lt;span style=&quot;font-size: 18px;&quot;&gt;病历&lt;/span&gt;" style="rounded=0;whiteSpace=wrap;html=1;" vertex="1" parent="1">
          <mxGeometry x="555.5" y="1840" width="120" height="60" as="geometry" />
        </mxCell>
        <mxCell id="WoZrSJQnsLas9fDDs5VQ-157" value="&lt;span style=&quot;font-size: 18px;&quot;&gt;诊断结果&lt;/span&gt;" style="rounded=0;whiteSpace=wrap;html=1;" vertex="1" parent="1">
          <mxGeometry x="555.5" y="1980" width="120" height="60" as="geometry" />
        </mxCell>
        <mxCell id="WoZrSJQnsLas9fDDs5VQ-160" value="&lt;span style=&quot;font-size: 18px;&quot;&gt;缴费&lt;/span&gt;" style="rhombus;whiteSpace=wrap;html=1;" vertex="1" parent="1">
          <mxGeometry x="820" y="1530" width="120" height="80" as="geometry" />
        </mxCell>
        <mxCell id="WoZrSJQnsLas9fDDs5VQ-161" value="&lt;span style=&quot;font-size: 18px;&quot;&gt;科室&lt;/span&gt;" style="rhombus;whiteSpace=wrap;html=1;" vertex="1" parent="1">
          <mxGeometry x="980" y="1680" width="120" height="80" as="geometry" />
        </mxCell>
        <mxCell id="WoZrSJQnsLas9fDDs5VQ-164" value="&lt;span style=&quot;font-size: 18px;&quot;&gt;收费明细&lt;/span&gt;" style="rounded=0;whiteSpace=wrap;html=1;" vertex="1" parent="1">
          <mxGeometry x="820" y="1430" width="120" height="60" as="geometry" />
        </mxCell>
        <mxCell id="WoZrSJQnsLas9fDDs5VQ-165" value="&lt;span style=&quot;font-size: 18px;&quot;&gt;组成&lt;/span&gt;" style="rhombus;whiteSpace=wrap;html=1;" vertex="1" parent="1">
          <mxGeometry x="820" y="1310" width="120" height="80" as="geometry" />
        </mxCell>
        <mxCell id="WoZrSJQnsLas9fDDs5VQ-166" value="&lt;span style=&quot;font-size: 18px;&quot;&gt;收费单&lt;/span&gt;" style="rounded=0;whiteSpace=wrap;html=1;" vertex="1" parent="1">
          <mxGeometry x="820" y="1200" width="120" height="60" as="geometry" />
        </mxCell>
        <mxCell id="WoZrSJQnsLas9fDDs5VQ-242" value="" style="edgeStyle=orthogonalEdgeStyle;rounded=0;orthogonalLoop=1;jettySize=auto;html=1;" edge="1" parent="1" source="WoZrSJQnsLas9fDDs5VQ-170" target="WoZrSJQnsLas9fDDs5VQ-156">
          <mxGeometry relative="1" as="geometry" />
        </mxCell>
        <mxCell id="WoZrSJQnsLas9fDDs5VQ-170" value="&lt;span style=&quot;font-size: 18px;&quot;&gt;属于&lt;/span&gt;" style="rhombus;whiteSpace=wrap;html=1;" vertex="1" parent="1">
          <mxGeometry x="770" y="1830" width="120" height="80" as="geometry" />
        </mxCell>
        <mxCell id="WoZrSJQnsLas9fDDs5VQ-171" value="&lt;span style=&quot;font-size: 18px;&quot;&gt;属于&lt;/span&gt;" style="rhombus;whiteSpace=wrap;html=1;" vertex="1" parent="1">
          <mxGeometry x="770" y="1970" width="120" height="80" as="geometry" />
        </mxCell>
        <mxCell id="WoZrSJQnsLas9fDDs5VQ-172" value="&lt;span style=&quot;font-size: 18px;&quot;&gt;病人&lt;/span&gt;" style="rounded=0;whiteSpace=wrap;html=1;" vertex="1" parent="1">
          <mxGeometry x="980" y="1840" width="120" height="60" as="geometry" />
        </mxCell>
        <mxCell id="WoZrSJQnsLas9fDDs5VQ-173" value="&lt;span style=&quot;font-size: 18px;&quot;&gt;拥有&lt;/span&gt;" style="rhombus;whiteSpace=wrap;html=1;" vertex="1" parent="1">
          <mxGeometry x="980" y="1970" width="120" height="80" as="geometry" />
        </mxCell>
        <mxCell id="WoZrSJQnsLas9fDDs5VQ-177" style="edgeStyle=orthogonalEdgeStyle;rounded=0;orthogonalLoop=1;jettySize=auto;html=1;exitX=1;exitY=0.5;exitDx=0;exitDy=0;entryX=0;entryY=0.5;entryDx=0;entryDy=0;" edge="1" parent="1" source="WoZrSJQnsLas9fDDs5VQ-174" target="WoZrSJQnsLas9fDDs5VQ-176">
          <mxGeometry relative="1" as="geometry" />
        </mxCell>
        <mxCell id="WoZrSJQnsLas9fDDs5VQ-174" value="&lt;span style=&quot;font-size: 18px;&quot;&gt;挂号单&lt;/span&gt;" style="rounded=0;whiteSpace=wrap;html=1;" vertex="1" parent="1">
          <mxGeometry x="980" y="2090" width="120" height="60" as="geometry" />
        </mxCell>
        <mxCell id="WoZrSJQnsLas9fDDs5VQ-179" style="edgeStyle=orthogonalEdgeStyle;rounded=0;orthogonalLoop=1;jettySize=auto;html=1;exitX=1;exitY=0.5;exitDx=0;exitDy=0;entryX=0;entryY=0.5;entryDx=0;entryDy=0;" edge="1" parent="1" source="WoZrSJQnsLas9fDDs5VQ-176" target="WoZrSJQnsLas9fDDs5VQ-178">
          <mxGeometry relative="1" as="geometry" />
        </mxCell>
        <mxCell id="WoZrSJQnsLas9fDDs5VQ-176" value="&lt;span style=&quot;font-size: 18px;&quot;&gt;参考&lt;/span&gt;" style="rhombus;whiteSpace=wrap;html=1;" vertex="1" parent="1">
          <mxGeometry x="1200" y="2080" width="120" height="80" as="geometry" />
        </mxCell>
        <mxCell id="WoZrSJQnsLas9fDDs5VQ-178" value="&lt;span style=&quot;font-size: 18px;&quot;&gt;收费&lt;/span&gt;" style="rounded=0;whiteSpace=wrap;html=1;" vertex="1" parent="1">
          <mxGeometry x="1410" y="2090" width="120" height="60" as="geometry" />
        </mxCell>
        <mxCell id="WoZrSJQnsLas9fDDs5VQ-181" value="" style="endArrow=none;html=1;rounded=0;entryX=0;entryY=0.5;entryDx=0;entryDy=0;" edge="1" parent="1" target="WoZrSJQnsLas9fDDs5VQ-170">
          <mxGeometry width="50" height="50" relative="1" as="geometry">
            <mxPoint x="680" y="1870" as="sourcePoint" />
            <mxPoint x="730" y="1820" as="targetPoint" />
          </mxGeometry>
        </mxCell>
        <mxCell id="WoZrSJQnsLas9fDDs5VQ-182" value="&lt;span style=&quot;font-size: 18px;&quot;&gt;产生&lt;/span&gt;" style="rhombus;whiteSpace=wrap;html=1;" vertex="1" parent="1">
          <mxGeometry x="1241" y="1830" width="120" height="80" as="geometry" />
        </mxCell>
        <mxCell id="WoZrSJQnsLas9fDDs5VQ-183" value="&lt;span style=&quot;font-size: 18px;&quot;&gt;治疗记录&lt;/span&gt;" style="rounded=0;whiteSpace=wrap;html=1;" vertex="1" parent="1">
          <mxGeometry x="1241" y="1690" width="120" height="60" as="geometry" />
        </mxCell>
        <mxCell id="WoZrSJQnsLas9fDDs5VQ-185" value="&lt;font style=&quot;font-size: 18px;&quot;&gt;参考&lt;/font&gt;" style="rhombus;whiteSpace=wrap;html=1;" vertex="1" parent="1">
          <mxGeometry x="1410" y="1420" width="120" height="80" as="geometry" />
        </mxCell>
        <mxCell id="WoZrSJQnsLas9fDDs5VQ-186" value="" style="endArrow=none;html=1;rounded=0;entryX=0.5;entryY=1;entryDx=0;entryDy=0;" edge="1" parent="1" target="WoZrSJQnsLas9fDDs5VQ-185">
          <mxGeometry width="50" height="50" relative="1" as="geometry">
            <mxPoint x="1470" y="2090" as="sourcePoint" />
            <mxPoint x="1520" y="2040" as="targetPoint" />
          </mxGeometry>
        </mxCell>
        <mxCell id="WoZrSJQnsLas9fDDs5VQ-187" value="" style="endArrow=none;html=1;rounded=0;entryX=0;entryY=0.5;entryDx=0;entryDy=0;" edge="1" parent="1" target="WoZrSJQnsLas9fDDs5VQ-185">
          <mxGeometry width="50" height="50" relative="1" as="geometry">
            <mxPoint x="950" y="1460" as="sourcePoint" />
            <mxPoint x="990" y="1410" as="targetPoint" />
          </mxGeometry>
        </mxCell>
        <mxCell id="WoZrSJQnsLas9fDDs5VQ-188" value="" style="endArrow=none;html=1;rounded=0;entryX=0.5;entryY=1;entryDx=0;entryDy=0;" edge="1" parent="1" source="WoZrSJQnsLas9fDDs5VQ-165" target="WoZrSJQnsLas9fDDs5VQ-166">
          <mxGeometry width="50" height="50" relative="1" as="geometry">
            <mxPoint x="830" y="1260" as="sourcePoint" />
            <mxPoint x="880" y="1270" as="targetPoint" />
          </mxGeometry>
        </mxCell>
        <mxCell id="WoZrSJQnsLas9fDDs5VQ-189" value="" style="endArrow=none;html=1;rounded=0;exitX=0.5;exitY=0;exitDx=0;exitDy=0;" edge="1" parent="1" source="WoZrSJQnsLas9fDDs5VQ-164">
          <mxGeometry width="50" height="50" relative="1" as="geometry">
            <mxPoint x="830" y="1420" as="sourcePoint" />
            <mxPoint x="880" y="1390" as="targetPoint" />
          </mxGeometry>
        </mxCell>
        <mxCell id="WoZrSJQnsLas9fDDs5VQ-190" value="" style="endArrow=none;html=1;rounded=0;" edge="1" parent="1">
          <mxGeometry width="50" height="50" relative="1" as="geometry">
            <mxPoint x="880" y="1530" as="sourcePoint" />
            <mxPoint x="879.5" y="1490" as="targetPoint" />
          </mxGeometry>
        </mxCell>
        <mxCell id="WoZrSJQnsLas9fDDs5VQ-191" value="" style="endArrow=none;html=1;rounded=0;entryX=0;entryY=0.5;entryDx=0;entryDy=0;" edge="1" parent="1" target="WoZrSJQnsLas9fDDs5VQ-160">
          <mxGeometry width="50" height="50" relative="1" as="geometry">
            <mxPoint x="670" y="1700" as="sourcePoint" />
            <mxPoint x="720" y="1650" as="targetPoint" />
            <Array as="points">
              <mxPoint x="760" y="1700" />
              <mxPoint x="760" y="1570" />
            </Array>
          </mxGeometry>
        </mxCell>
        <mxCell id="WoZrSJQnsLas9fDDs5VQ-192" value="" style="endArrow=none;html=1;rounded=0;entryX=0;entryY=0.5;entryDx=0;entryDy=0;" edge="1" parent="1" target="WoZrSJQnsLas9fDDs5VQ-161">
          <mxGeometry width="50" height="50" relative="1" as="geometry">
            <mxPoint x="670" y="1720" as="sourcePoint" />
            <mxPoint x="720" y="1670" as="targetPoint" />
          </mxGeometry>
        </mxCell>
        <mxCell id="WoZrSJQnsLas9fDDs5VQ-193" value="" style="endArrow=none;html=1;rounded=0;exitX=0.5;exitY=0;exitDx=0;exitDy=0;" edge="1" parent="1" source="WoZrSJQnsLas9fDDs5VQ-133">
          <mxGeometry width="50" height="50" relative="1" as="geometry">
            <mxPoint x="140" y="1500" as="sourcePoint" />
            <mxPoint x="140" y="1430" as="targetPoint" />
          </mxGeometry>
        </mxCell>
        <mxCell id="WoZrSJQnsLas9fDDs5VQ-194" value="" style="endArrow=none;html=1;rounded=0;exitX=0.5;exitY=0;exitDx=0;exitDy=0;" edge="1" parent="1" source="WoZrSJQnsLas9fDDs5VQ-135">
          <mxGeometry width="50" height="50" relative="1" as="geometry">
            <mxPoint x="90" y="1640" as="sourcePoint" />
            <mxPoint x="140" y="1590" as="targetPoint" />
          </mxGeometry>
        </mxCell>
        <mxCell id="WoZrSJQnsLas9fDDs5VQ-195" value="" style="endArrow=none;html=1;rounded=0;" edge="1" parent="1" source="WoZrSJQnsLas9fDDs5VQ-139">
          <mxGeometry width="50" height="50" relative="1" as="geometry">
            <mxPoint x="90" y="1790" as="sourcePoint" />
            <mxPoint x="140" y="1740" as="targetPoint" />
          </mxGeometry>
        </mxCell>
        <mxCell id="WoZrSJQnsLas9fDDs5VQ-196" value="" style="endArrow=none;html=1;rounded=0;" edge="1" parent="1">
          <mxGeometry width="50" height="50" relative="1" as="geometry">
            <mxPoint x="200" y="2120" as="sourcePoint" />
            <mxPoint x="970" y="2120" as="targetPoint" />
          </mxGeometry>
        </mxCell>
        <mxCell id="WoZrSJQnsLas9fDDs5VQ-197" value="" style="endArrow=none;html=1;rounded=0;exitX=0.5;exitY=0;exitDx=0;exitDy=0;entryX=0.5;entryY=1;entryDx=0;entryDy=0;" edge="1" parent="1" source="WoZrSJQnsLas9fDDs5VQ-143" target="WoZrSJQnsLas9fDDs5VQ-134">
          <mxGeometry width="50" height="50" relative="1" as="geometry">
            <mxPoint x="329.5" y="1390" as="sourcePoint" />
            <mxPoint x="379.5" y="1340" as="targetPoint" />
          </mxGeometry>
        </mxCell>
        <mxCell id="WoZrSJQnsLas9fDDs5VQ-198" value="" style="endArrow=none;html=1;rounded=0;exitX=0.5;exitY=0;exitDx=0;exitDy=0;entryX=0.5;entryY=1;entryDx=0;entryDy=0;entryPerimeter=0;" edge="1" parent="1" source="WoZrSJQnsLas9fDDs5VQ-144" target="WoZrSJQnsLas9fDDs5VQ-143">
          <mxGeometry width="50" height="50" relative="1" as="geometry">
            <mxPoint x="329.5" y="1530" as="sourcePoint" />
            <mxPoint x="379.5" y="1480" as="targetPoint" />
          </mxGeometry>
        </mxCell>
        <mxCell id="WoZrSJQnsLas9fDDs5VQ-199" value="" style="endArrow=none;html=1;rounded=0;" edge="1" parent="1">
          <mxGeometry width="50" height="50" relative="1" as="geometry">
            <mxPoint x="440" y="1570" as="sourcePoint" />
            <mxPoint x="550" y="1570" as="targetPoint" />
          </mxGeometry>
        </mxCell>
        <mxCell id="WoZrSJQnsLas9fDDs5VQ-230" value="n" style="edgeLabel;html=1;align=center;verticalAlign=middle;resizable=0;points=[];" vertex="1" connectable="0" parent="WoZrSJQnsLas9fDDs5VQ-199">
          <mxGeometry x="0.0078" y="-7" relative="1" as="geometry">
            <mxPoint as="offset" />
          </mxGeometry>
        </mxCell>
        <mxCell id="WoZrSJQnsLas9fDDs5VQ-200" value="" style="endArrow=none;html=1;rounded=0;exitX=0.5;exitY=0;exitDx=0;exitDy=0;" edge="1" parent="1" source="WoZrSJQnsLas9fDDs5VQ-152">
          <mxGeometry width="50" height="50" relative="1" as="geometry">
            <mxPoint x="560" y="1660" as="sourcePoint" />
            <mxPoint x="610" y="1610" as="targetPoint" />
          </mxGeometry>
        </mxCell>
        <mxCell id="WoZrSJQnsLas9fDDs5VQ-202" value="" style="endArrow=none;html=1;rounded=0;entryX=0;entryY=0.5;entryDx=0;entryDy=0;" edge="1" parent="1" target="WoZrSJQnsLas9fDDs5VQ-142">
          <mxGeometry width="50" height="50" relative="1" as="geometry">
            <mxPoint x="200" y="1713.5" as="sourcePoint" />
            <mxPoint x="250" y="1663.5" as="targetPoint" />
          </mxGeometry>
        </mxCell>
        <mxCell id="WoZrSJQnsLas9fDDs5VQ-203" value="" style="endArrow=none;html=1;rounded=0;exitX=0;exitY=0.5;exitDx=0;exitDy=0;" edge="1" parent="1" source="WoZrSJQnsLas9fDDs5VQ-140">
          <mxGeometry width="50" height="50" relative="1" as="geometry">
            <mxPoint x="170" y="2010" as="sourcePoint" />
            <mxPoint x="170" y="1740" as="targetPoint" />
            <Array as="points">
              <mxPoint x="170" y="2010" />
            </Array>
          </mxGeometry>
        </mxCell>
        <mxCell id="WoZrSJQnsLas9fDDs5VQ-204" value="" style="endArrow=none;html=1;rounded=0;exitX=0;exitY=0.5;exitDx=0;exitDy=0;" edge="1" parent="1" source="WoZrSJQnsLas9fDDs5VQ-141">
          <mxGeometry width="50" height="50" relative="1" as="geometry">
            <mxPoint x="140" y="1790" as="sourcePoint" />
            <mxPoint x="190" y="1740" as="targetPoint" />
            <Array as="points">
              <mxPoint x="190" y="1870" />
            </Array>
          </mxGeometry>
        </mxCell>
        <mxCell id="WoZrSJQnsLas9fDDs5VQ-205" value="" style="endArrow=none;html=1;rounded=0;entryX=0;entryY=0.5;entryDx=0;entryDy=0;" edge="1" parent="1" target="WoZrSJQnsLas9fDDs5VQ-157">
          <mxGeometry width="50" height="50" relative="1" as="geometry">
            <mxPoint x="450" y="2010" as="sourcePoint" />
            <mxPoint x="500" y="1960" as="targetPoint" />
          </mxGeometry>
        </mxCell>
        <mxCell id="WoZrSJQnsLas9fDDs5VQ-206" value="" style="endArrow=none;html=1;rounded=0;entryX=0;entryY=0.5;entryDx=0;entryDy=0;" edge="1" parent="1" target="WoZrSJQnsLas9fDDs5VQ-156">
          <mxGeometry width="50" height="50" relative="1" as="geometry">
            <mxPoint x="440" y="1870" as="sourcePoint" />
            <mxPoint x="490" y="1820" as="targetPoint" />
          </mxGeometry>
        </mxCell>
        <mxCell id="WoZrSJQnsLas9fDDs5VQ-207" value="" style="endArrow=none;html=1;rounded=0;" edge="1" parent="1">
          <mxGeometry width="50" height="50" relative="1" as="geometry">
            <mxPoint x="440" y="1712.91" as="sourcePoint" />
            <mxPoint x="550" y="1712.91" as="targetPoint" />
          </mxGeometry>
        </mxCell>
        <mxCell id="WoZrSJQnsLas9fDDs5VQ-208" value="" style="endArrow=none;html=1;rounded=0;entryX=0;entryY=0.5;entryDx=0;entryDy=0;entryPerimeter=0;" edge="1" parent="1" target="WoZrSJQnsLas9fDDs5VQ-171">
          <mxGeometry width="50" height="50" relative="1" as="geometry">
            <mxPoint x="680" y="2010" as="sourcePoint" />
            <mxPoint x="760" y="2010" as="targetPoint" />
          </mxGeometry>
        </mxCell>
        <mxCell id="WoZrSJQnsLas9fDDs5VQ-209" value="" style="endArrow=none;html=1;rounded=0;entryX=0;entryY=0.5;entryDx=0;entryDy=0;" edge="1" parent="1" target="WoZrSJQnsLas9fDDs5VQ-172">
          <mxGeometry width="50" height="50" relative="1" as="geometry">
            <mxPoint x="890" y="1870" as="sourcePoint" />
            <mxPoint x="940" y="1820" as="targetPoint" />
          </mxGeometry>
        </mxCell>
        <mxCell id="WoZrSJQnsLas9fDDs5VQ-210" value="" style="endArrow=none;html=1;rounded=0;exitX=1;exitY=0.5;exitDx=0;exitDy=0;entryX=0;entryY=0.5;entryDx=0;entryDy=0;" edge="1" parent="1" source="WoZrSJQnsLas9fDDs5VQ-171" target="WoZrSJQnsLas9fDDs5VQ-173">
          <mxGeometry width="50" height="50" relative="1" as="geometry">
            <mxPoint x="820" y="1890" as="sourcePoint" />
            <mxPoint x="870" y="1840" as="targetPoint" />
          </mxGeometry>
        </mxCell>
        <mxCell id="WoZrSJQnsLas9fDDs5VQ-211" value="" style="endArrow=none;html=1;rounded=0;" edge="1" parent="1" source="WoZrSJQnsLas9fDDs5VQ-173">
          <mxGeometry width="50" height="50" relative="1" as="geometry">
            <mxPoint x="990" y="1950" as="sourcePoint" />
            <mxPoint x="1040" y="1900" as="targetPoint" />
          </mxGeometry>
        </mxCell>
        <mxCell id="WoZrSJQnsLas9fDDs5VQ-212" value="" style="endArrow=none;html=1;rounded=0;" edge="1" parent="1">
          <mxGeometry width="50" height="50" relative="1" as="geometry">
            <mxPoint x="1039.41" y="2090" as="sourcePoint" />
            <mxPoint x="1039" y="2050" as="targetPoint" />
          </mxGeometry>
        </mxCell>
        <mxCell id="WoZrSJQnsLas9fDDs5VQ-213" value="" style="endArrow=none;html=1;rounded=0;entryX=0.5;entryY=1;entryDx=0;entryDy=0;" edge="1" parent="1" target="WoZrSJQnsLas9fDDs5VQ-161">
          <mxGeometry width="50" height="50" relative="1" as="geometry">
            <mxPoint x="1039.41" y="1840" as="sourcePoint" />
            <mxPoint x="1039.41" y="1770" as="targetPoint" />
          </mxGeometry>
        </mxCell>
        <mxCell id="WoZrSJQnsLas9fDDs5VQ-214" value="" style="endArrow=none;html=1;rounded=0;entryX=0;entryY=0.5;entryDx=0;entryDy=0;" edge="1" parent="1" target="WoZrSJQnsLas9fDDs5VQ-182">
          <mxGeometry width="50" height="50" relative="1" as="geometry">
            <mxPoint x="1100" y="1870" as="sourcePoint" />
            <mxPoint x="1150" y="1820" as="targetPoint" />
          </mxGeometry>
        </mxCell>
        <mxCell id="WoZrSJQnsLas9fDDs5VQ-215" value="" style="endArrow=none;html=1;rounded=0;entryX=0.5;entryY=1;entryDx=0;entryDy=0;" edge="1" parent="1" target="WoZrSJQnsLas9fDDs5VQ-183">
          <mxGeometry width="50" height="50" relative="1" as="geometry">
            <mxPoint x="1301" y="1830" as="sourcePoint" />
            <mxPoint x="1350" y="1790" as="targetPoint" />
          </mxGeometry>
        </mxCell>
        <mxCell id="WoZrSJQnsLas9fDDs5VQ-216" value="1" style="text;html=1;align=center;verticalAlign=middle;resizable=0;points=[];autosize=1;strokeColor=none;fillColor=none;" vertex="1" parent="1">
          <mxGeometry x="110" y="1440" width="30" height="30" as="geometry" />
        </mxCell>
        <mxCell id="WoZrSJQnsLas9fDDs5VQ-217" value="n" style="text;html=1;align=center;verticalAlign=middle;resizable=0;points=[];autosize=1;strokeColor=none;fillColor=none;" vertex="1" parent="1">
          <mxGeometry x="110" y="1638" width="30" height="30" as="geometry" />
        </mxCell>
        <mxCell id="WoZrSJQnsLas9fDDs5VQ-218" value="1" style="text;html=1;align=center;verticalAlign=middle;resizable=0;points=[];autosize=1;strokeColor=none;fillColor=none;" vertex="1" parent="1">
          <mxGeometry x="215" y="1688" width="30" height="30" as="geometry" />
        </mxCell>
        <mxCell id="WoZrSJQnsLas9fDDs5VQ-220" value="1" style="text;html=1;align=center;verticalAlign=middle;resizable=0;points=[];autosize=1;strokeColor=none;fillColor=none;" vertex="1" parent="1">
          <mxGeometry x="215" y="1848" width="30" height="30" as="geometry" />
        </mxCell>
        <mxCell id="WoZrSJQnsLas9fDDs5VQ-221" value="1" style="text;html=1;align=center;verticalAlign=middle;resizable=0;points=[];autosize=1;strokeColor=none;fillColor=none;" vertex="1" parent="1">
          <mxGeometry x="195" y="1988" width="30" height="30" as="geometry" />
        </mxCell>
        <mxCell id="WoZrSJQnsLas9fDDs5VQ-222" value="1" style="text;html=1;align=center;verticalAlign=middle;resizable=0;points=[];autosize=1;strokeColor=none;fillColor=none;" vertex="1" parent="1">
          <mxGeometry x="115" y="1878" width="30" height="30" as="geometry" />
        </mxCell>
        <mxCell id="WoZrSJQnsLas9fDDs5VQ-223" value="n" style="text;html=1;align=center;verticalAlign=middle;resizable=0;points=[];autosize=1;strokeColor=none;fillColor=none;" vertex="1" parent="1">
          <mxGeometry x="475" y="1688" width="30" height="30" as="geometry" />
        </mxCell>
        <mxCell id="WoZrSJQnsLas9fDDs5VQ-224" value="n" style="text;html=1;align=center;verticalAlign=middle;resizable=0;points=[];autosize=1;strokeColor=none;fillColor=none;" vertex="1" parent="1">
          <mxGeometry x="475" y="1848" width="30" height="30" as="geometry" />
        </mxCell>
        <mxCell id="WoZrSJQnsLas9fDDs5VQ-226" value="n" style="text;html=1;align=center;verticalAlign=middle;resizable=0;points=[];autosize=1;strokeColor=none;fillColor=none;" vertex="1" parent="1">
          <mxGeometry x="475" y="1988" width="30" height="30" as="geometry" />
        </mxCell>
        <mxCell id="WoZrSJQnsLas9fDDs5VQ-227" value="n" style="text;html=1;align=center;verticalAlign=middle;resizable=0;points=[];autosize=1;strokeColor=none;fillColor=none;" vertex="1" parent="1">
          <mxGeometry x="525" y="2118" width="30" height="30" as="geometry" />
        </mxCell>
        <mxCell id="WoZrSJQnsLas9fDDs5VQ-228" value="1" style="text;html=1;align=center;verticalAlign=middle;resizable=0;points=[];autosize=1;strokeColor=none;fillColor=none;" vertex="1" parent="1">
          <mxGeometry x="355" y="1358" width="30" height="30" as="geometry" />
        </mxCell>
        <mxCell id="WoZrSJQnsLas9fDDs5VQ-229" value="n" style="text;html=1;align=center;verticalAlign=middle;resizable=0;points=[];autosize=1;strokeColor=none;fillColor=none;" vertex="1" parent="1">
          <mxGeometry x="355" y="1498" width="30" height="30" as="geometry" />
        </mxCell>
        <mxCell id="WoZrSJQnsLas9fDDs5VQ-231" value="1" style="text;html=1;align=center;verticalAlign=middle;resizable=0;points=[];autosize=1;strokeColor=none;fillColor=none;" vertex="1" parent="1">
          <mxGeometry x="585" y="1628" width="30" height="30" as="geometry" />
        </mxCell>
        <mxCell id="WoZrSJQnsLas9fDDs5VQ-232" value="1" style="text;html=1;align=center;verticalAlign=middle;resizable=0;points=[];autosize=1;strokeColor=none;fillColor=none;" vertex="1" parent="1">
          <mxGeometry x="735" y="1618" width="30" height="30" as="geometry" />
        </mxCell>
        <mxCell id="WoZrSJQnsLas9fDDs5VQ-233" value="n" style="text;html=1;align=center;verticalAlign=middle;resizable=0;points=[];autosize=1;strokeColor=none;fillColor=none;" vertex="1" parent="1">
          <mxGeometry x="855" y="1498" width="30" height="30" as="geometry" />
        </mxCell>
        <mxCell id="WoZrSJQnsLas9fDDs5VQ-234" value="n" style="text;html=1;align=center;verticalAlign=middle;resizable=0;points=[];autosize=1;strokeColor=none;fillColor=none;" vertex="1" parent="1">
          <mxGeometry x="855" y="1388" width="30" height="30" as="geometry" />
        </mxCell>
        <mxCell id="WoZrSJQnsLas9fDDs5VQ-235" value="1" style="text;html=1;align=center;verticalAlign=middle;resizable=0;points=[];autosize=1;strokeColor=none;fillColor=none;" vertex="1" parent="1">
          <mxGeometry x="855" y="1268" width="30" height="30" as="geometry" />
        </mxCell>
        <mxCell id="WoZrSJQnsLas9fDDs5VQ-236" value="n" style="text;html=1;align=center;verticalAlign=middle;resizable=0;points=[];autosize=1;strokeColor=none;fillColor=none;" vertex="1" parent="1">
          <mxGeometry x="1155" y="1438" width="30" height="30" as="geometry" />
        </mxCell>
        <mxCell id="WoZrSJQnsLas9fDDs5VQ-237" value="1" style="text;html=1;align=center;verticalAlign=middle;resizable=0;points=[];autosize=1;strokeColor=none;fillColor=none;" vertex="1" parent="1">
          <mxGeometry x="1445" y="1738" width="30" height="30" as="geometry" />
        </mxCell>
        <mxCell id="WoZrSJQnsLas9fDDs5VQ-238" value="1" style="text;html=1;align=center;verticalAlign=middle;resizable=0;points=[];autosize=1;strokeColor=none;fillColor=none;" vertex="1" parent="1">
          <mxGeometry x="1270" y="1778" width="30" height="30" as="geometry" />
        </mxCell>
        <mxCell id="WoZrSJQnsLas9fDDs5VQ-239" value="1" style="text;html=1;align=center;verticalAlign=middle;resizable=0;points=[];autosize=1;strokeColor=none;fillColor=none;" vertex="1" parent="1">
          <mxGeometry x="1155" y="1838" width="30" height="30" as="geometry" />
        </mxCell>
        <mxCell id="WoZrSJQnsLas9fDDs5VQ-240" value="1" style="text;html=1;align=center;verticalAlign=middle;resizable=0;points=[];autosize=1;strokeColor=none;fillColor=none;" vertex="1" parent="1">
          <mxGeometry x="1015" y="1768" width="30" height="30" as="geometry" />
        </mxCell>
        <mxCell id="WoZrSJQnsLas9fDDs5VQ-241" value="n" style="text;html=1;align=center;verticalAlign=middle;resizable=0;points=[];autosize=1;strokeColor=none;fillColor=none;" vertex="1" parent="1">
          <mxGeometry x="825" y="1718" width="30" height="30" as="geometry" />
        </mxCell>
        <mxCell id="WoZrSJQnsLas9fDDs5VQ-243" value="n" style="text;html=1;align=center;verticalAlign=middle;resizable=0;points=[];autosize=1;strokeColor=none;fillColor=none;" vertex="1" parent="1">
          <mxGeometry x="710" y="1840" width="30" height="30" as="geometry" />
        </mxCell>
        <mxCell id="WoZrSJQnsLas9fDDs5VQ-244" value="1" style="text;html=1;align=center;verticalAlign=middle;resizable=0;points=[];autosize=1;strokeColor=none;fillColor=none;" vertex="1" parent="1">
          <mxGeometry x="915" y="1838" width="30" height="30" as="geometry" />
        </mxCell>
        <mxCell id="WoZrSJQnsLas9fDDs5VQ-245" value="n" style="text;html=1;align=center;verticalAlign=middle;resizable=0;points=[];autosize=1;strokeColor=none;fillColor=none;" vertex="1" parent="1">
          <mxGeometry x="705" y="1978" width="30" height="30" as="geometry" />
        </mxCell>
        <mxCell id="WoZrSJQnsLas9fDDs5VQ-246" value="1" style="text;html=1;align=center;verticalAlign=middle;resizable=0;points=[];autosize=1;strokeColor=none;fillColor=none;" vertex="1" parent="1">
          <mxGeometry x="915" y="1978" width="30" height="30" as="geometry" />
        </mxCell>
        <mxCell id="WoZrSJQnsLas9fDDs5VQ-247" value="1" style="text;html=1;align=center;verticalAlign=middle;resizable=0;points=[];autosize=1;strokeColor=none;fillColor=none;" vertex="1" parent="1">
          <mxGeometry x="1015" y="1918" width="30" height="30" as="geometry" />
        </mxCell>
        <mxCell id="WoZrSJQnsLas9fDDs5VQ-248" value="n" style="text;html=1;align=center;verticalAlign=middle;resizable=0;points=[];autosize=1;strokeColor=none;fillColor=none;" vertex="1" parent="1">
          <mxGeometry x="1015" y="2058" width="30" height="30" as="geometry" />
        </mxCell>
        <mxCell id="WoZrSJQnsLas9fDDs5VQ-249" value="n" style="text;html=1;align=center;verticalAlign=middle;resizable=0;points=[];autosize=1;strokeColor=none;fillColor=none;" vertex="1" parent="1">
          <mxGeometry x="1135" y="2118" width="30" height="30" as="geometry" />
        </mxCell>
        <mxCell id="WoZrSJQnsLas9fDDs5VQ-250" value="1" style="text;html=1;align=center;verticalAlign=middle;resizable=0;points=[];autosize=1;strokeColor=none;fillColor=none;" vertex="1" parent="1">
          <mxGeometry x="1345" y="2118" width="30" height="30" as="geometry" />
        </mxCell>
      </root>
    </mxGraphModel>
  </diagram>
</mxfile>
